<svg width="11" height="18" viewBox="0 0 11 18" fill="none" xmlns="http://www.w3.org/2000/svg">
<path d="M10.66 12.1C10.66 13.1667 10.3333 14.0467 9.68 14.74C9.02667 15.4333 8.13333 15.8733 7 16.06C6.93333 16.0867 6.9 16.1267 6.9 16.18L6.92 17.48C6.92 17.5467 6.89333 17.6 6.84 17.64C6.8 17.6933 6.74667 17.72 6.68 17.72H4.68C4.61333 17.72 4.55333 17.6933 4.5 17.64C4.46 17.6 4.44 17.5467 4.44 17.48L4.46 16.16C4.46 16.1067 4.42667 16.0667 4.36 16.04C3.22667 15.8133 2.33333 15.3467 1.68 14.64C1.04 13.9333 0.72 13.0467 0.72 11.98V11.54C0.72 11.4733 0.74 11.42 0.78 11.38C0.833333 11.3267 0.893333 11.3 0.96 11.3H3.12C3.18667 11.3 3.24 11.3267 3.28 11.38C3.33333 11.42 3.36 11.4733 3.36 11.54V11.84C3.36 12.3733 3.59333 12.8267 4.06 13.2C4.52667 13.56 5.16667 13.74 5.98 13.74C6.66 13.74 7.16 13.5933 7.48 13.3C7.81333 12.9933 7.98 12.62 7.98 12.18C7.98 11.86 7.88 11.5933 7.68 11.38C7.48 11.1533 7.2 10.96 6.84 10.8C6.49333 10.6267 5.94 10.3933 5.18 10.1C4.31333 9.79333 3.58667 9.48 3 9.16C2.41333 8.84 1.91333 8.40667 1.5 7.86C1.1 7.3 0.9 6.61333 0.9 5.8C0.9 4.77333 1.20667 3.92667 1.82 3.26C2.44667 2.58 3.28667 2.14 4.34 1.94C4.40667 1.91333 4.44 1.87333 4.44 1.82L4.4 0.359999C4.4 0.293332 4.42 0.239999 4.46 0.2C4.51333 0.146666 4.57333 0.119999 4.64 0.119999H6.64C6.70667 0.119999 6.76 0.146666 6.8 0.2C6.85333 0.239999 6.88 0.293332 6.88 0.359999L6.86 1.86C6.86 1.91333 6.89333 1.95333 6.96 1.98C8.06667 2.20667 8.94667 2.69333 9.6 3.44C10.2533 4.17333 10.58 5.07333 10.58 6.14V6.44C10.58 6.50667 10.5533 6.56667 10.5 6.62C10.46 6.66 10.4067 6.68 10.34 6.68H8.16C8.09333 6.68 8.03333 6.66 7.98 6.62C7.94 6.56667 7.92 6.50667 7.92 6.44V6.28C7.92 5.72 7.7 5.24667 7.26 4.86C6.82 4.46 6.22 4.26 5.46 4.26C4.86 4.26 4.39333 4.39333 4.06 4.66C3.72667 4.92667 3.56 5.29333 3.56 5.76C3.56 6.09333 3.65333 6.37333 3.84 6.6C4.04 6.82667 4.33333 7.03333 4.72 7.22C5.10667 7.40667 5.70667 7.64667 6.52 7.94C7.41333 8.27333 8.12 8.57333 8.64 8.84C9.16 9.10667 9.62667 9.50667 10.04 10.04C10.4533 10.5733 10.66 11.26 10.66 12.1Z" fill="#C29240"/>
</svg>
