<svg width="11" height="15" viewBox="0 0 11 15" fill="none" xmlns="http://www.w3.org/2000/svg">
<path d="M7.82605 3.08923C7.82605 4.79537 6.44296 6.17846 4.73681 6.17846C3.03067 6.17846 1.64758 4.79537 1.64758 3.08923C1.64758 1.38309 3.03067 0 4.73681 0C6.44296 0 7.82605 1.38309 7.82605 3.08923Z" fill="#C29240"/>
<path d="M0 10.1921C0 9.11291 0.87485 8.23804 1.95402 8.23804H8.34342C9.42259 8.23804 10.2974 9.11291 10.2974 10.1921C10.2974 11.9369 9.1099 13.4578 7.41712 13.881L7.29559 13.9115C5.88604 14.2639 4.4114 14.2639 3.00185 13.9115L2.88032 13.881C1.18752 13.4578 0 11.9369 0 10.1921Z" fill="#C29240"/>
</svg>
