<svg width="23" height="23" viewBox="0 0 23 23" fill="none" xmlns="http://www.w3.org/2000/svg">
<path d="M20.5675 1H2.50519C1.67357 1 1 1.60883 1 2.36051V21.4076H22.0726V2.36051C22.0726 1.60883 21.3991 1 20.5675 1Z" stroke="#C29240" stroke-width="1.5" stroke-miterlimit="10" stroke-linejoin="round"/>
<path d="M16.0519 18.6867L22.0726 13.2446H16.0519V18.6867Z" stroke="#C29240" stroke-width="1.5" stroke-miterlimit="10" stroke-linejoin="round"/>
<path d="M16.0519 18.6865H1" stroke="#C29240" stroke-width="1.5" stroke-miterlimit="10" stroke-linejoin="round"/>
<path d="M7.02079 7.80249H4.01041V10.5235H7.02079V7.80249Z" stroke="#C29240" stroke-width="1.5" stroke-miterlimit="10" stroke-linejoin="round"/>
<path d="M13.0415 7.80249H10.0311V10.5235H13.0415V7.80249Z" stroke="#C29240" stroke-width="1.5" stroke-miterlimit="10" stroke-linejoin="round"/>
<path d="M19.0623 7.80249H16.0519V10.5235H19.0623V7.80249Z" stroke="#C29240" stroke-width="1.5" stroke-miterlimit="10" stroke-linejoin="round"/>
<path d="M7.02079 13.2446H4.01041V15.9656H7.02079V13.2446Z" stroke="#C29240" stroke-width="1.5" stroke-miterlimit="10" stroke-linejoin="round"/>
<path d="M13.0415 13.2446H10.0311V15.9656H13.0415V13.2446Z" stroke="#C29240" stroke-width="1.5" stroke-miterlimit="10" stroke-linejoin="round"/>
<path d="M22.0726 5.08154H1" stroke="#C29240" stroke-width="1.5" stroke-miterlimit="10" stroke-linejoin="round"/>
</svg>
