<svg width="23" height="23" viewBox="0 0 23 23" fill="none" xmlns="http://www.w3.org/2000/svg">
<path d="M20.6978 1H2.63556C1.80394 1 1.13037 1.60883 1.13037 2.36051V21.4076H22.203V2.36051C22.203 1.60883 21.5294 1 20.6978 1Z" stroke="#C29240" stroke-width="1.5" stroke-miterlimit="10" stroke-linejoin="round"/>
<path d="M16.1823 18.6867L22.203 13.2446H16.1823V18.6867Z" stroke="#C29240" stroke-width="1.5" stroke-miterlimit="10" stroke-linejoin="round"/>
<path d="M16.1823 18.6865H1.13037" stroke="#C29240" stroke-width="1.5" stroke-miterlimit="10" stroke-linejoin="round"/>
<path d="M7.15114 7.80249H4.14076V10.5235H7.15114V7.80249Z" stroke="#C29240" stroke-width="1.5" stroke-miterlimit="10" stroke-linejoin="round"/>
<path d="M13.1719 7.80249H10.1615V10.5235H13.1719V7.80249Z" stroke="#C29240" stroke-width="1.5" stroke-miterlimit="10" stroke-linejoin="round"/>
<path d="M19.1926 7.80249H16.1823V10.5235H19.1926V7.80249Z" stroke="#C29240" stroke-width="1.5" stroke-miterlimit="10" stroke-linejoin="round"/>
<path d="M7.15114 13.2446H4.14076V15.9656H7.15114V13.2446Z" stroke="#C29240" stroke-width="1.5" stroke-miterlimit="10" stroke-linejoin="round"/>
<path d="M13.1719 13.2446H10.1615V15.9656H13.1719V13.2446Z" stroke="#C29240" stroke-width="1.5" stroke-miterlimit="10" stroke-linejoin="round"/>
<path d="M22.203 5.08154H1.13037" stroke="#C29240" stroke-width="1.5" stroke-miterlimit="10" stroke-linejoin="round"/>
</svg>
