<svg width="15" height="15" viewBox="0 0 15 15" fill="none" xmlns="http://www.w3.org/2000/svg">
<path d="M7.82605 3.08923C7.82605 4.79537 6.44296 6.17846 4.73681 6.17846C3.03067 6.17846 1.64758 4.79537 1.64758 3.08923C1.64758 1.38309 3.03067 0 4.73681 0C6.44296 0 7.82605 1.38309 7.82605 3.08923Z" fill="#C29240"/>
<path d="M0 10.1921C0 9.11291 0.87485 8.23804 1.95402 8.23804H8.34342C9.42259 8.23804 10.2974 9.11291 10.2974 10.1921C10.2974 11.9369 9.1099 13.4578 7.41712 13.881L7.29559 13.9115C5.88604 14.2639 4.4114 14.2639 3.00185 13.9115L2.88032 13.881C1.18752 13.4578 0 11.9369 0 10.1921Z" fill="#C29240"/>
<path d="M13.7986 3.60422C13.7986 4.68476 12.9226 5.56073 11.842 5.56073C10.7615 5.56073 9.88553 4.68476 9.88553 3.60422C9.88553 2.52368 10.7615 1.64771 11.842 1.64771C12.9226 1.64771 13.7986 2.52368 13.7986 3.60422Z" fill="#C29240"/>
<path d="M11.7149 11.3849C11.6412 11.6796 11.5221 12.0331 11.3292 12.4084H11.8421C13.4628 12.4084 14.7768 11.0944 14.7768 9.4736C14.7768 8.39302 13.9009 7.51709 12.8203 7.51709H11.5126C11.7238 7.96181 11.8421 8.45935 11.8421 8.98447V10.5264L11.8385 10.5826C11.8357 10.6385 11.8308 10.7072 11.8223 10.7864C11.8054 10.9443 11.7739 11.149 11.7149 11.3849Z" fill="#C29240"/>
</svg>
