<svg width="13" height="14" viewBox="0 0 13 14" fill="none" xmlns="http://www.w3.org/2000/svg">
<path d="M12.78 5.68C12.78 5.74667 12.7533 5.80667 12.7 5.86C12.66 5.9 12.6067 5.92 12.54 5.92H11.04C10.96 5.92 10.92 5.95333 10.92 6.02L10.62 8C10.62 8.06667 10.6467 8.1 10.7 8.1H11.82C11.8867 8.1 11.94 8.12667 11.98 8.18C12.0333 8.22 12.06 8.27333 12.06 8.34V10.26C12.06 10.3267 12.0333 10.3867 11.98 10.44C11.94 10.48 11.8867 10.5 11.82 10.5H10.34C10.26 10.5 10.22 10.5333 10.22 10.6L9.82 13.24C9.80667 13.3867 9.72 13.46 9.56 13.46H7.22C7.06 13.46 6.98667 13.3733 7 13.2L7.4 10.6C7.4 10.5333 7.37333 10.5 7.32 10.5H5.32C5.24 10.5 5.2 10.5333 5.2 10.6L4.8 13.24C4.78667 13.3867 4.7 13.46 4.54 13.46H2.2C2.04 13.46 1.96667 13.3733 1.98 13.2L2.38 10.6C2.38 10.5333 2.35333 10.5 2.3 10.5H1.18C1.11333 10.5 1.05333 10.48 1 10.44C0.96 10.3867 0.94 10.3267 0.94 10.26V8.34C0.94 8.27333 0.96 8.22 1 8.18C1.05333 8.12667 1.11333 8.1 1.18 8.1H2.66C2.74 8.1 2.78 8.06667 2.78 8L3.08 6.02C3.08 5.95333 3.05333 5.92 3 5.92H1.92C1.85333 5.92 1.79333 5.9 1.74 5.86C1.7 5.80667 1.68 5.74667 1.68 5.68V3.74C1.68 3.67333 1.7 3.62 1.74 3.58C1.79333 3.52667 1.85333 3.5 1.92 3.5H3.38C3.46 3.5 3.5 3.46667 3.5 3.4L3.9 0.759999C3.91333 0.613332 4 0.539999 4.16 0.539999H6.5C6.66 0.539999 6.73333 0.626666 6.72 0.799999L6.32 3.4C6.32 3.46667 6.34667 3.5 6.4 3.5H8.38C8.46 3.5 8.5 3.46667 8.5 3.4L8.9 0.759999C8.91333 0.613332 9 0.539999 9.16 0.539999H11.5C11.66 0.539999 11.7333 0.626666 11.72 0.799999L11.32 3.4C11.32 3.46667 11.3467 3.5 11.4 3.5H12.56C12.6267 3.5 12.68 3.52667 12.72 3.58C12.7733 3.62 12.8 3.67333 12.8 3.74L12.78 5.68ZM7.68 8.1C7.76 8.1 7.8 8.06667 7.8 8L8.1 6.02C8.1 5.95333 8.07333 5.92 8.02 5.92H6.02C5.94 5.92 5.9 5.95333 5.9 6.02L5.6 8C5.6 8.06667 5.62667 8.1 5.68 8.1H7.68Z" fill="#C29240"/>
</svg>
