<svg width="19" height="16" viewBox="0 0 19 16" fill="none" xmlns="http://www.w3.org/2000/svg">
<path d="M18.7688 7.64038L10.0009 0.176425C9.86447 0.0626414 9.68999 0 9.50945 0C9.32891 0 9.15443 0.0626414 9.01804 0.176425L0.250143 7.64038C0.136762 7.73788 0.0568733 7.86625 0.0210746 8.00844C-0.0147241 8.15062 -0.00474192 8.29992 0.0496969 8.43653C0.10362 8.57247 0.199354 8.68935 0.324126 8.77159C0.448899 8.85383 0.596775 8.89751 0.748025 8.89681H2.17054V12.89C2.17054 13.7148 2.51116 14.5059 3.11747 15.0891C3.72377 15.6723 4.5461 16 5.40354 16H10.9837C11.5023 15.9855 11.9947 15.7774 12.3568 15.4199C12.7188 15.0623 12.922 14.5834 12.9235 14.0843V10.6135C12.9218 10.1059 12.7114 9.61961 12.3383 9.26069C11.9652 8.90177 11.4596 8.69941 10.932 8.69777H8.02227C7.49521 8.69942 6.99031 8.90198 6.61823 9.26107C6.24614 9.62017 6.03721 10.1065 6.03721 10.6135V12.8465C6.03721 13.0362 6.11555 13.2181 6.255 13.3523C6.39445 13.4864 6.58359 13.5618 6.7808 13.5618C6.97801 13.5618 7.16715 13.4864 7.3066 13.3523C7.44605 13.2181 7.52439 13.0362 7.52439 12.8465V10.6135C7.52607 10.487 7.57906 10.3661 7.67207 10.2766C7.76508 10.1872 7.89075 10.1362 8.02227 10.1346H10.932C11.0635 10.1362 11.1892 10.1872 11.2822 10.2766C11.3752 10.3661 11.4282 10.487 11.4299 10.6135V14.0843C11.4282 14.2108 11.3752 14.3317 11.2822 14.4211C11.1892 14.5106 11.0635 14.5616 10.932 14.5632H5.37121C4.92061 14.5471 4.49394 14.364 4.18056 14.0521C3.86719 13.7402 3.69141 13.3238 3.69005 12.89V8.18151C3.69006 7.99123 3.61193 7.80864 3.47266 7.67351C3.33339 7.53838 3.14427 7.46164 2.94646 7.46H2.73955L9.50945 1.68166L16.3052 7.46H16.0983C15.9982 7.4575 15.8986 7.47433 15.8053 7.50947C15.7121 7.54461 15.6271 7.59736 15.5554 7.66461C15.4836 7.73186 15.4266 7.81224 15.3877 7.90102C15.3488 7.9898 15.3288 8.08517 15.3289 8.18151V12.89C15.3296 13.1735 15.2552 13.4526 15.1127 13.7007C14.9701 13.9489 14.7641 14.1579 14.5141 14.3082C14.3426 14.4096 14.2201 14.5725 14.1734 14.7608C14.1267 14.9492 14.1597 15.1477 14.2652 15.3127C14.3707 15.4777 14.5399 15.5956 14.7358 15.6405C14.9316 15.6854 15.138 15.6536 15.3095 15.5522C15.7723 15.2724 16.1539 14.8843 16.4185 14.4242C16.6831 13.9641 16.8221 13.447 16.8225 12.9211V8.89681H18.245C18.3963 8.89751 18.5441 8.85383 18.6689 8.77159C18.7937 8.68935 18.8894 8.57247 18.9433 8.43653C19.0009 8.30233 19.015 8.15456 18.9839 8.01252C18.9527 7.87048 18.8777 7.74079 18.7688 7.64038Z" fill="#C29240"/>
</svg>
