<svg width="32" height="31" viewBox="0 0 32 31" fill="none" xmlns="http://www.w3.org/2000/svg">
<path d="M5.62167 14.9595L1.15167 8.6995C1.05278 8.5515 1 8.3775 1 8.1995C1 8.0215 1.05278 7.8475 1.15167 7.6995L5.62167 1.4195C5.69822 1.31213 5.79524 1.22096 5.90717 1.15123C6.01909 1.08151 6.1437 1.0346 6.27382 1.01323C6.40394 0.991851 6.537 0.99642 6.66535 1.02667C6.79369 1.05692 6.91479 1.11226 7.02167 1.1895C7.12904 1.26605 7.22021 1.36308 7.28994 1.475C7.35966 1.58692 7.40656 1.71153 7.42794 1.84165C7.44932 1.97177 7.44475 2.10483 7.4145 2.23318C7.38424 2.36153 7.32891 2.48262 7.25167 2.5895L3.25167 8.1895L7.25167 13.7895C7.32891 13.8964 7.38424 14.0175 7.4145 14.1458C7.44475 14.2742 7.44932 14.4072 7.42794 14.5374C7.40656 14.6675 7.35966 14.7921 7.28994 14.904C7.22021 15.0159 7.12904 15.113 7.02167 15.1895C6.91479 15.2667 6.79369 15.3221 6.66535 15.3523C6.537 15.3826 6.40394 15.3872 6.27382 15.3658C6.1437 15.3444 6.01909 15.2975 5.90717 15.2278C5.79524 15.158 5.69822 15.0669 5.62167 14.9595Z" fill="black" stroke="black"/>
<path d="M19.1815 7.1895H2.02148C1.75627 7.1895 1.50191 7.29486 1.31438 7.48239C1.12684 7.66993 1.02148 7.92428 1.02148 8.1895C1.02148 8.45472 1.12684 8.70907 1.31438 8.89661C1.50191 9.08414 1.75627 9.1895 2.02148 9.1895H19.1815C21.6355 9.15172 24.0131 10.0427 25.8378 11.6839C27.6626 13.3251 28.7998 15.5953 29.0215 18.0395C29.1092 19.3403 28.9286 20.6453 28.4907 21.8733C28.0529 23.1013 27.3672 24.2262 26.4763 25.1781C25.5854 26.13 24.5082 26.8885 23.3118 27.4065C22.1154 27.9246 20.8252 28.1911 19.5215 28.1895H2.02148C1.75627 28.1895 1.50191 28.2949 1.31438 28.4824C1.12684 28.6699 1.02148 28.9243 1.02148 29.1895C1.02148 29.4547 1.12684 29.7091 1.31438 29.8966C1.50191 30.0841 1.75627 30.1895 2.02148 30.1895H19.5215C21.1293 30.1955 22.7206 29.8645 24.1928 29.2179C25.6649 28.5713 26.9852 27.6235 28.0687 26.4355C29.1521 25.2474 29.9746 23.8456 30.4832 22.3203C30.9918 20.795 31.1752 19.18 31.0215 17.5795C30.6914 14.6862 29.2961 12.0195 27.1073 10.0987C24.9185 8.17802 22.0931 7.14092 19.1815 7.1895Z" fill="black" stroke="black"/>
</svg>
