<svg width="14" height="14" viewBox="0 0 14 14" fill="none" xmlns="http://www.w3.org/2000/svg">
<g clip-path="url(#clip0_10_26)">
<path d="M1.36604 9.65127C1.32778 9.61325 1.28003 9.58619 1.22776 9.5729C1.17549 9.55961 1.12061 9.56058 1.06884 9.57571C1.01707 9.59084 0.970311 9.61958 0.933425 9.65893C0.896539 9.69828 0.870881 9.7468 0.859123 9.79944L0.00687261 13.6337C-0.00406639 13.6831 -0.0023722 13.7346 0.0117988 13.7832C0.0259698 13.8318 0.0521612 13.8761 0.0879559 13.9119C0.124064 13.9473 0.16836 13.9733 0.216904 13.9874C0.265448 14.0015 0.316736 14.0035 0.366206 13.993L4.19987 13.1414C4.25258 13.1296 4.30115 13.1039 4.34053 13.0669C4.3799 13.0299 4.40863 12.9831 4.42371 12.9312C4.43879 12.8794 4.43967 12.8244 4.42626 12.7721C4.41284 12.7198 4.38563 12.6721 4.34746 12.6339L1.36604 9.65127Z" fill="white"/>
<path d="M10.5256 4.11308L3.9223 10.7164C3.89434 10.7448 3.87866 10.783 3.87866 10.8229C3.87866 10.8627 3.89434 10.901 3.9223 10.9293L4.98747 11.9951C5.04468 12.0504 5.12112 12.0813 5.20068 12.0813C5.28023 12.0813 5.35668 12.0504 5.41389 11.9951L11.8037 5.60408C11.8318 5.57616 11.854 5.54298 11.8692 5.50645C11.8844 5.46991 11.8922 5.43073 11.8922 5.39116C11.8922 5.35159 11.8844 5.31242 11.8692 5.27588C11.854 5.23934 11.8318 5.20616 11.8037 5.17824L10.7391 4.11308C10.7108 4.08479 10.6724 4.06891 10.6324 4.06891C10.5924 4.06891 10.554 4.08479 10.5256 4.11308Z" fill="white"/>
<path d="M9.88689 3.26144L8.82172 2.19627C8.76519 2.13992 8.68863 2.10828 8.60881 2.10828C8.52899 2.10828 8.45242 2.13992 8.39589 2.19627L2.00547 8.58669C1.97743 8.61461 1.95518 8.64778 1.93999 8.68432C1.92481 8.72086 1.91699 8.76004 1.91699 8.79961C1.91699 8.83918 1.92481 8.87835 1.93999 8.91489C1.95518 8.95143 1.97743 8.98461 2.00547 9.01252L3.07064 10.0777C3.09902 10.1057 3.13726 10.1213 3.1771 10.1213C3.21694 10.1213 3.25518 10.1057 3.28356 10.0777L9.88689 3.47436C9.90088 3.46038 9.91197 3.44378 9.91954 3.42552C9.92711 3.40725 9.93101 3.38767 9.93101 3.3679C9.93101 3.34813 9.92711 3.32855 9.91954 3.31028C9.91197 3.29201 9.90088 3.27542 9.88689 3.26144Z" fill="white"/>
<path d="M13.2954 0.705278C12.8431 0.253918 12.2302 0.000427246 11.5912 0.000427246C10.9522 0.000427246 10.3393 0.253918 9.88702 0.705278L9.46061 1.13111C9.40422 1.18774 9.37256 1.2644 9.37256 1.34432C9.37256 1.42424 9.40422 1.5009 9.46061 1.55753L12.4432 4.53895C12.5006 4.59352 12.5769 4.62395 12.6561 4.62395C12.7353 4.62395 12.8116 4.59352 12.869 4.53895L13.2954 4.11311C13.7468 3.6609 14.0002 3.04809 14.0002 2.40919C14.0002 1.7703 13.7468 1.15749 13.2954 0.705278Z" fill="white"/>
</g>
<defs>
<clipPath id="clip0_10_26">
<rect width="14" height="14" fill="white"/>
</clipPath>
</defs>
</svg>
