<svg width="19" height="15" viewBox="0 0 19 15" fill="none" xmlns="http://www.w3.org/2000/svg">
<path d="M11.875 5.96344C11.875 5.63552 12.1409 5.36969 12.4688 5.36969H16.0312C16.3591 5.36969 16.625 5.63552 16.625 5.96344C16.625 6.29136 16.3591 6.55719 16.0312 6.55719H12.4688C12.1409 6.55719 11.875 6.29136 11.875 5.96344Z" fill="white"/>
<path d="M11.875 9.52594C11.875 9.19807 12.1409 8.93219 12.4688 8.93219H16.0312C16.3591 8.93219 16.625 9.19807 16.625 9.52594C16.625 9.85381 16.3591 10.1197 16.0312 10.1197H12.4688C12.1409 10.1197 11.875 9.85381 11.875 9.52594Z" fill="white"/>
<path d="M2.375 8.63531C2.375 8.14345 2.77375 7.74469 3.26562 7.74469H6.82812C6.95109 7.74469 7.06825 7.76963 7.17479 7.81463C7.49446 7.94989 7.71875 8.26636 7.71875 8.63531V9.52594C7.71875 9.52594 7.71875 9.55373 7.71354 9.60253C7.69347 9.7898 7.59621 10.2858 7.125 10.6948C6.73849 11.0303 6.10038 11.3072 5.04688 11.3072C2.375 11.3072 2.375 9.52594 2.375 9.52594V8.63531Z" fill="white"/>
<path d="M5.04688 6.55719C5.86668 6.55719 6.53125 5.89262 6.53125 5.07281C6.53125 4.25301 5.86668 3.58844 5.04688 3.58844C4.22707 3.58844 3.5625 4.25301 3.5625 5.07281C3.5625 5.89262 4.22707 6.55719 5.04688 6.55719Z" fill="white"/>
<path d="M10.0938 5.36969C10.0938 6.02552 9.56211 6.55719 8.90625 6.55719C8.25042 6.55719 7.71875 6.02552 7.71875 5.36969C7.71875 4.71386 8.25042 4.18219 8.90625 4.18219C9.56211 4.18219 10.0938 4.71386 10.0938 5.36969Z" fill="white"/>
<path d="M8.82905 10.0923C8.78433 10.2711 8.71207 10.4857 8.59497 10.7134H8.90625C9.88997 10.7134 10.6875 9.91592 10.6875 8.93219C10.6875 8.27633 10.1559 7.74469 9.5 7.74469H8.70626C8.8345 8.01461 8.90625 8.31659 8.90625 8.63531V9.57118L8.90411 9.60527C8.90241 9.63923 8.89943 9.68091 8.89427 9.729C8.88401 9.82483 8.86487 9.94905 8.82905 10.0923Z" fill="white"/>
<path d="M2.96875 0.61969C1.32916 0.61969 0 1.94885 0 3.58844V11.9009C0 13.5405 1.32916 14.8697 2.96875 14.8697H16.0312C17.6708 14.8697 19 13.5405 19 11.9009V3.58844C19 1.94885 17.6708 0.61969 16.0312 0.61969H2.96875ZM1.1875 3.58844C1.1875 2.60468 1.98499 1.80719 2.96875 1.80719H16.0312C17.015 1.80719 17.8125 2.60468 17.8125 3.58844V11.9009C17.8125 12.8847 17.015 13.6822 16.0312 13.6822H2.96875C1.98499 13.6822 1.1875 12.8847 1.1875 11.9009V3.58844Z" fill="white"/>
</svg>
