<svg width="20" height="16" viewBox="0 0 20 16" fill="none" xmlns="http://www.w3.org/2000/svg">
<path d="M7.5 5.86969C7.5 6.90523 6.66054 7.74469 5.625 7.74469C4.58946 7.74469 3.75 6.90523 3.75 5.86969C3.75 4.83415 4.58946 3.99469 5.625 3.99469C6.66054 3.99469 7.5 4.83415 7.5 5.86969Z" fill="white"/>
<path d="M2.5 9.86819C2.5 9.21319 3.03099 8.68219 3.68599 8.68219H7.56401C8.21901 8.68219 8.75 9.21319 8.75 9.86819C8.75 10.9272 8.02922 11.8503 7.0018 12.1072L6.92804 12.1257C6.07251 12.3396 5.17749 12.3396 4.32196 12.1257L4.2482 12.1072C3.22076 11.8503 2.5 10.9272 2.5 9.86819Z" fill="white"/>
<path d="M11.875 5.24469C11.5299 5.24469 11.25 5.52451 11.25 5.86969C11.25 6.21486 11.5299 6.49469 11.875 6.49469H15.625C15.9701 6.49469 16.25 6.21486 16.25 5.86969C16.25 5.52451 15.9701 5.24469 15.625 5.24469H11.875Z" fill="white"/>
<path d="M11.875 8.99469C11.5299 8.99469 11.25 9.27456 11.25 9.61969C11.25 9.96481 11.5299 10.2447 11.875 10.2447H15.625C15.9701 10.2447 16.25 9.96481 16.25 9.61969C16.25 9.27456 15.9701 8.99469 15.625 8.99469H11.875Z" fill="white"/>
<path d="M0 2.43219C0 1.22406 0.979375 0.24469 2.1875 0.24469H17.8125C19.0206 0.24469 20 1.22406 20 2.43219V13.0572C20 14.2653 19.0206 15.2447 17.8125 15.2447H2.1875C0.979375 15.2447 0 14.2653 0 13.0572V2.43219ZM2.1875 1.49469C1.66974 1.49469 1.25 1.91443 1.25 2.43219V13.0572C1.25 13.5749 1.66974 13.9947 2.1875 13.9947H17.8125C18.3302 13.9947 18.75 13.5749 18.75 13.0572V2.43219C18.75 1.91443 18.3302 1.49469 17.8125 1.49469H2.1875Z" fill="white"/>
</svg>
