<svg width="169" height="163" viewBox="0 0 169 163" fill="none" xmlns="http://www.w3.org/2000/svg">
<g filter="url(#filter0_d_85_4308)">
<path fill-rule="evenodd" clip-rule="evenodd" d="M121.991 57.9131C121.991 78.852 105.017 95.8263 84.0779 95.8263C63.1391 95.8263 46.1648 78.852 46.1648 57.9131C46.1648 36.9743 63.1391 20 84.0779 20C105.017 20 121.991 36.9743 121.991 57.9131ZM82.0843 91.7815V85.8161L78.0972 80.866V91.3136C79.4019 91.5457 80.7325 91.7031 82.0843 91.7815ZM74.11 90.3511V75.916L68.2342 68.6212V87.9199C70.0967 88.9054 72.0621 89.7226 74.11 90.3511ZM64.247 85.4426V63.6712L59.2105 57.4185L59.2106 80.9911C60.7367 82.6349 62.4239 84.1271 64.247 85.4426ZM55.2234 75.7654L55.2234 52.4685L51.6234 47.9992C50.6667 51.1352 50.152 54.4641 50.152 57.9131C50.152 64.4632 52.0082 70.5797 55.2234 75.7654ZM53.2698 43.687L68.053 62.0402H68.2342V62.2651L83.8331 81.631L114.706 43.3031C114.111 42.0587 113.443 40.8562 112.706 39.7012L83.8292 75.5031L55.2934 39.9485C54.5441 41.1466 53.8675 42.3948 53.2698 43.687ZM57.6998 36.5768L83.8369 69.1427L110.279 36.3599C108.374 34.0473 106.17 31.9913 103.724 30.2514L106.614 32.5841L83.8395 60.7995L61.1442 32.9125C59.9082 34.047 58.7566 35.2719 57.6998 36.5768ZM64.2343 30.3928C69.8142 26.3623 76.6687 23.9872 84.0779 23.9872C91.3019 23.9872 97.9986 26.245 103.501 30.0936L83.8267 54.4672L64.2343 30.3928ZM116.396 47.5612L112.863 51.9474V75.8777C116.121 70.6682 118.004 64.5106 118.004 57.9131C118.004 54.303 117.44 50.8246 116.396 47.5612ZM89.9188 91.3382C88.6588 91.5568 87.375 91.7059 86.0715 91.7815V85.2082L89.9188 80.4318V91.3382ZM93.906 90.3937C96.03 89.7519 98.066 88.9074 99.9916 87.8828V67.9265L93.906 75.4818V90.3937ZM103.979 85.392C105.747 84.109 107.387 82.6594 108.875 81.0662V56.8974L103.979 62.9764V85.392Z" fill="#C79A4F"/>
<path d="M30.802 103.583H32.5334C32.7086 103.583 32.7962 103.671 32.7962 103.846V113.261C32.7962 113.436 32.7086 113.524 32.5334 113.524H31.5749C31.3997 113.524 31.3121 113.436 31.3121 113.261V105.454H31.2503L29.2406 111.112C29.1788 111.277 29.0654 111.359 28.9005 111.359H27.9111C27.7565 111.359 27.6483 111.277 27.5865 111.112L25.5304 105.438H25.4686V113.261C25.4686 113.364 25.448 113.436 25.4068 113.477C25.3759 113.508 25.3089 113.524 25.2058 113.524H24.2628C24.0876 113.524 24 113.436 24 113.261V103.846C24 103.671 24.0876 103.583 24.2628 103.583H25.9942C26.1076 103.583 26.19 103.64 26.2416 103.753L28.3595 109.721H28.4367L30.5701 103.753C30.5907 103.64 30.668 103.583 30.802 103.583Z" fill="#C79A4F"/>
<path d="M42.0383 103.846V113.261C42.0383 113.436 41.9507 113.524 41.7755 113.524H40.8016C40.6264 113.524 40.5388 113.436 40.5388 113.261V103.846C40.5388 103.671 40.6264 103.583 40.8016 103.583H41.7755C41.9507 103.583 42.0383 103.671 42.0383 103.846Z" fill="#C79A4F"/>
<path d="M55.0537 113.524H50.045C49.8698 113.524 49.7822 113.436 49.7822 113.261V103.846C49.7822 103.671 49.8698 103.583 50.045 103.583H51.0189C51.1941 103.583 51.2817 103.671 51.2817 103.846V112.024C51.2817 112.127 51.3436 112.179 51.4672 112.179H55.0537C55.2289 112.179 55.3165 112.271 55.3165 112.457V113.261C55.3165 113.436 55.2289 113.524 55.0537 113.524Z" fill="#C79A4F"/>
<path d="M67.424 113.524H62.4152C62.24 113.524 62.1524 113.436 62.1524 113.261V103.846C62.1524 103.671 62.24 103.583 62.4152 103.583H63.3892C63.5644 103.583 63.652 103.671 63.652 103.846V112.024C63.652 112.127 63.7138 112.179 63.8375 112.179H67.424C67.5992 112.179 67.6868 112.271 67.6868 112.457V113.261C67.6868 113.436 67.5992 113.524 67.424 113.524Z" fill="#C79A4F"/>
<path d="M79.7324 113.524H74.7855C74.6103 113.524 74.5227 113.436 74.5227 113.261V103.846C74.5227 103.671 74.6103 103.583 74.7855 103.583H79.7324C79.8973 103.583 79.9798 103.671 79.9798 103.846V104.635C79.9798 104.81 79.8973 104.897 79.7324 104.897H76.2077C76.0841 104.897 76.0222 104.949 76.0222 105.052V107.665C76.0222 107.768 76.0841 107.819 76.2077 107.819H79.1913C79.3769 107.819 79.4696 107.907 79.4696 108.082V108.87C79.4696 109.046 79.3769 109.133 79.1913 109.133H76.2077C76.0841 109.133 76.0222 109.185 76.0222 109.288V112.039C76.0222 112.153 76.0841 112.21 76.2077 112.21H79.7324C79.8973 112.21 79.9798 112.297 79.9798 112.472V113.261C79.9798 113.436 79.8973 113.524 79.7324 113.524Z" fill="#C79A4F"/>
<path d="M88.5822 113.524H87.6238C87.4486 113.524 87.361 113.436 87.361 113.261V103.846C87.361 103.671 87.4486 103.583 87.6238 103.583H88.4895C88.6544 103.583 88.7677 103.64 88.8296 103.753L92.5707 110.478H92.6325V103.846C92.6325 103.671 92.7201 103.583 92.8953 103.583H93.8538C94.029 103.583 94.1166 103.671 94.1166 103.846V113.261C94.1166 113.436 94.029 113.524 93.8538 113.524H93.019C92.8541 113.524 92.7201 113.441 92.617 113.276L88.9069 106.629H88.845V113.261C88.845 113.436 88.7574 113.524 88.5822 113.524Z" fill="#C79A4F"/>
<path d="M103.006 113.524H102.047C101.872 113.524 101.784 113.436 101.784 113.261V103.846C101.784 103.671 101.872 103.583 102.047 103.583H102.913C103.078 103.583 103.191 103.64 103.253 103.753L106.994 110.478H107.056V103.846C107.056 103.671 107.144 103.583 107.319 103.583H108.277C108.452 103.583 108.54 103.671 108.54 103.846V113.261C108.54 113.436 108.452 113.524 108.277 113.524H107.442C107.277 113.524 107.144 113.441 107.04 113.276L103.33 106.629H103.268V113.261C103.268 113.436 103.181 113.524 103.006 113.524Z" fill="#C79A4F"/>
<path d="M117.785 103.846V113.261C117.785 113.436 117.697 113.524 117.522 113.524H116.548C116.373 113.524 116.285 113.436 116.285 113.261V103.846C116.285 103.671 116.373 103.583 116.548 103.583H117.522C117.697 103.583 117.785 103.671 117.785 103.846Z" fill="#C79A4F"/>
<path d="M126.07 113.524H124.957C124.812 113.524 124.761 113.436 124.802 113.261L127.492 103.846C127.543 103.671 127.667 103.583 127.863 103.583H129.409C129.615 103.583 129.739 103.671 129.78 103.846L132.47 113.261C132.511 113.436 132.454 113.524 132.3 113.524H131.202C131.109 113.524 131.042 113.508 131.001 113.477C130.97 113.436 130.944 113.364 130.924 113.261L130.336 111.251H126.935L126.348 113.261C126.307 113.436 126.214 113.524 126.07 113.524ZM128.605 105.067L127.244 110.014H130.043L128.667 105.067H128.605Z" fill="#C79A4F"/>
<path d="M144.68 113.524H139.671C139.496 113.524 139.408 113.436 139.408 113.261V103.846C139.408 103.671 139.496 103.583 139.671 103.583H140.645C140.82 103.583 140.908 103.671 140.908 103.846V112.024C140.908 112.127 140.97 112.179 141.093 112.179H144.68C144.855 112.179 144.943 112.271 144.943 112.457V113.261C144.943 113.436 144.855 113.524 144.68 113.524Z" fill="#C79A4F"/>
<path d="M57.2787 134.579H55.6246C54.8619 134.579 54.2693 134.367 53.8468 133.945C53.4345 133.522 53.2284 132.935 53.2284 132.182V127.035C53.2284 126.272 53.4345 125.685 53.8468 125.272C54.2693 124.85 54.8619 124.638 55.6246 124.638H57.2787C58.0413 124.638 58.6288 124.85 59.041 125.272C59.4635 125.685 59.6748 126.272 59.6748 127.035V127.591C59.6748 127.777 59.5872 127.869 59.412 127.869H58.4381C58.2629 127.869 58.1753 127.777 58.1753 127.591V127.096C58.1753 126.334 57.8043 125.952 57.0622 125.952H55.841C55.0989 125.952 54.7279 126.334 54.7279 127.096V132.121C54.7279 132.883 55.0989 133.265 55.841 133.265H57.0622C57.8043 133.265 58.1753 132.883 58.1753 132.121V130.729C58.1753 130.626 58.1186 130.575 58.0052 130.575H56.7531C56.5779 130.575 56.4903 130.487 56.4903 130.312V129.524C56.4903 129.348 56.5779 129.261 56.7531 129.261H59.3502C59.5666 129.261 59.6748 129.369 59.6748 129.585V132.182C59.6748 132.935 59.4635 133.522 59.041 133.945C58.6185 134.367 58.031 134.579 57.2787 134.579Z" fill="#C79A4F"/>
<path d="M68.4242 134.579H67.4502C67.275 134.579 67.1874 134.491 67.1874 134.316V124.901C67.1874 124.726 67.275 124.638 67.4502 124.638H71.0677C71.82 124.638 72.4074 124.855 72.83 125.288C73.2628 125.71 73.4793 126.298 73.4793 127.05V128.349C73.4793 129.534 72.9897 130.281 72.0107 130.59V130.652L73.7266 134.269C73.84 134.476 73.773 134.579 73.5256 134.579H72.5672C72.3198 134.579 72.1601 134.491 72.088 134.316L70.4338 130.76H68.8725C68.7488 130.76 68.687 130.812 68.687 130.915V134.316C68.687 134.491 68.5994 134.579 68.4242 134.579ZM68.857 129.524H70.8203C71.583 129.524 71.9643 129.147 71.9643 128.395V127.096C71.9643 126.334 71.583 125.952 70.8203 125.952H68.857C68.7436 125.952 68.687 126.004 68.687 126.107V129.369C68.687 129.472 68.7436 129.524 68.857 129.524Z" fill="#C79A4F"/>
<path d="M83.4348 133.265H84.7797C85.5321 133.265 85.9082 132.883 85.9082 132.121V127.096C85.9082 126.334 85.5321 125.952 84.7797 125.952H83.4348C82.6927 125.952 82.3217 126.334 82.3217 127.096V132.121C82.3217 132.883 82.6927 133.265 83.4348 133.265ZM85.0116 134.579H83.2183C82.4557 134.579 81.8631 134.367 81.4406 133.945C81.0283 133.522 80.8222 132.935 80.8222 132.182V127.035C80.8222 126.272 81.0283 125.685 81.4406 125.272C81.8631 124.85 82.4557 124.638 83.2183 124.638H85.0116C85.7742 124.638 86.3668 124.85 86.7894 125.272C87.2119 125.685 87.4232 126.272 87.4232 127.035V132.182C87.4232 132.935 87.2119 133.522 86.7894 133.945C86.3668 134.367 85.7742 134.579 85.0116 134.579Z" fill="#C79A4F"/>
<path d="M100.111 124.638H101.085C101.271 124.638 101.364 124.721 101.364 124.886V132.182C101.364 132.935 101.147 133.522 100.714 133.945C100.292 134.367 99.7043 134.579 98.9519 134.579H97.236C96.4836 134.579 95.8962 134.367 95.4736 133.945C95.0511 133.522 94.8398 132.935 94.8398 132.182V124.901C94.8398 124.726 94.9274 124.638 95.1026 124.638H96.0765C96.2517 124.638 96.3393 124.726 96.3393 124.901V132.121C96.3393 132.883 96.7104 133.265 97.4524 133.265H98.72C99.4724 133.265 99.8485 132.883 99.8485 132.121V124.901C99.8485 124.726 99.9361 124.638 100.111 124.638Z" fill="#C79A4F"/>
<path d="M110.17 134.579H109.196C109.021 134.579 108.933 134.491 108.933 134.316V124.901C108.933 124.726 109.021 124.638 109.196 124.638H112.875C113.627 124.638 114.215 124.85 114.637 125.272C115.06 125.685 115.271 126.272 115.271 127.035V128.642C115.271 129.395 115.06 129.982 114.637 130.405C114.215 130.827 113.627 131.039 112.875 131.039H110.618C110.494 131.039 110.432 131.09 110.432 131.193V134.316C110.432 134.491 110.345 134.579 110.17 134.579ZM110.602 129.709H112.659C113.39 129.709 113.756 129.328 113.756 128.565V127.096C113.756 126.334 113.39 125.952 112.659 125.952H110.602C110.489 125.952 110.432 126.004 110.432 126.107V129.554C110.432 129.657 110.489 129.709 110.602 129.709Z" fill="#C79A4F"/>
</g>
<defs>
<filter id="filter0_d_85_4308" x="0" y="0" width="168.943" height="162.579" filterUnits="userSpaceOnUse" color-interpolation-filters="sRGB">
<feFlood flood-opacity="0" result="BackgroundImageFix"/>
<feColorMatrix in="SourceAlpha" type="matrix" values="0 0 0 0 0 0 0 0 0 0 0 0 0 0 0 0 0 0 127 0" result="hardAlpha"/>
<feOffset dy="4"/>
<feGaussianBlur stdDeviation="12"/>
<feComposite in2="hardAlpha" operator="out"/>
<feColorMatrix type="matrix" values="0 0 0 0 0 0 0 0 0 0 0 0 0 0 0 0 0 0 1 0"/>
<feBlend mode="normal" in2="BackgroundImageFix" result="effect1_dropShadow_85_4308"/>
<feBlend mode="normal" in="SourceGraphic" in2="effect1_dropShadow_85_4308" result="shape"/>
</filter>
</defs>
</svg>
