<svg width="19" height="21" viewBox="0 0 19 21" fill="none" xmlns="http://www.w3.org/2000/svg">
<path d="M17.0952 1.45898H2.2381C1.55405 1.45898 1 2.01303 1 2.69708V20.0304H18.3333V2.69708C18.3333 2.01303 17.7793 1.45898 17.0952 1.45898Z" stroke="white" stroke-miterlimit="10" stroke-linejoin="round"/>
<path d="M13.3811 17.5542L18.3335 12.6019H13.3811V17.5542Z" stroke="white" stroke-miterlimit="10" stroke-linejoin="round"/>
<path d="M13.381 17.5542H1" stroke="white" stroke-miterlimit="10" stroke-linejoin="round"/>
<path d="M5.95227 7.64948H3.47607V10.1257H5.95227V7.64948Z" stroke="white" stroke-miterlimit="10" stroke-linejoin="round"/>
<path d="M10.9047 7.64948H8.42847V10.1257H10.9047V7.64948Z" stroke="white" stroke-miterlimit="10" stroke-linejoin="round"/>
<path d="M15.8573 7.64948H13.3811V10.1257H15.8573V7.64948Z" stroke="white" stroke-miterlimit="10" stroke-linejoin="round"/>
<path d="M5.95227 12.6019H3.47607V15.0781H5.95227V12.6019Z" stroke="white" stroke-miterlimit="10" stroke-linejoin="round"/>
<path d="M10.9047 12.6019H8.42847V15.0781H10.9047V12.6019Z" stroke="white" stroke-miterlimit="10" stroke-linejoin="round"/>
<path d="M18.3333 5.17328H1" stroke="white" stroke-miterlimit="10" stroke-linejoin="round"/>
</svg>
