<svg width="28" height="28" viewBox="0 0 28 28" fill="none" xmlns="http://www.w3.org/2000/svg">
<path d="M14.0001 9.625C13.1348 9.625 12.289 9.88159 11.5695 10.3623C10.85 10.8431 10.2893 11.5263 9.95815 12.3258C9.62702 13.1252 9.54038 14.0048 9.70919 14.8535C9.878 15.7022 10.2947 16.4817 10.9065 17.0936C11.5184 17.7054 12.2979 18.1221 13.1466 18.2909C13.9953 18.4597 14.8749 18.3731 15.6744 18.042C16.4738 17.7108 17.1571 17.1501 17.6378 16.4306C18.1185 15.7111 18.3751 14.8653 18.3751 14C18.3737 12.8401 17.9124 11.7281 17.0922 10.9079C16.272 10.0877 15.16 9.62637 14.0001 9.625ZM14.0001 16.625C13.4809 16.625 12.9734 16.471 12.5417 16.1826C12.1101 15.8942 11.7736 15.4842 11.5749 15.0045C11.3763 14.5249 11.3243 13.9971 11.4256 13.4879C11.5268 12.9787 11.7769 12.511 12.144 12.1438C12.5111 11.7767 12.9788 11.5267 13.488 11.4254C13.9972 11.3241 14.525 11.3761 15.0047 11.5748C15.4843 11.7735 15.8943 12.1099 16.1827 12.5416C16.4712 12.9733 16.6251 13.4808 16.6251 14C16.6243 14.696 16.3475 15.3632 15.8554 15.8553C15.3633 16.3474 14.6961 16.6242 14.0001 16.625Z" fill="#004686"/>
<path d="M5.48931 8.55982C5.05905 8.39818 4.58279 8.41024 4.16126 8.59346C3.73974 8.77668 3.40602 9.11668 3.2307 9.54155C3.05538 9.96642 3.0522 10.4428 3.22185 10.87C3.3915 11.2972 3.72066 11.6416 4.13971 11.8304C4.56601 12.0107 4.92974 12.3126 5.18546 12.6984C5.44118 13.0843 5.57756 13.5369 5.57756 13.9997C5.57756 14.4626 5.44118 14.9152 5.18546 15.301C4.92974 15.6869 4.56601 15.9888 4.13971 16.1691C3.72056 16.3579 3.39132 16.7024 3.22165 17.1296C3.05198 17.5569 3.05519 18.0334 3.2306 18.4583C3.40602 18.8833 3.73988 19.2233 4.16153 19.4064C4.58318 19.5896 5.05955 19.6015 5.48983 19.4397C5.91921 19.2648 6.39064 19.2205 6.84506 19.3124C7.29949 19.4042 7.71671 19.6281 8.04446 19.956C8.3722 20.2839 8.59591 20.7013 8.68754 21.1557C8.77918 21.6102 8.73467 22.0816 8.5596 22.5109C8.39271 22.9423 8.40307 23.4222 8.58842 23.846C8.77376 24.2698 9.11908 24.6032 9.54913 24.7736C9.7645 24.8627 9.99531 24.9086 10.2284 24.9086C10.5689 24.911 10.9026 24.8128 11.1875 24.6263C11.4724 24.4399 11.696 24.1735 11.8302 23.8605C12.0105 23.4342 12.3124 23.0705 12.6982 22.8148C13.084 22.559 13.5366 22.4227 13.9995 22.4227C14.4624 22.4227 14.915 22.559 15.3008 22.8148C15.6866 23.0705 15.9885 23.4342 16.1689 23.8605C16.3577 24.2797 16.7022 24.6089 17.1294 24.7786C17.5567 24.9482 18.0332 24.945 18.4581 24.7696C18.883 24.5942 19.223 24.2603 19.4062 23.8387C19.5893 23.417 19.6013 22.9407 19.4394 22.5104C19.2646 22.081 19.2203 21.6096 19.3121 21.1552C19.404 20.7007 19.6279 20.2835 19.9558 19.9558C20.2837 19.628 20.701 19.4043 21.1555 19.3127C21.61 19.221 22.0814 19.2655 22.5107 19.4406C22.9394 19.6071 23.4164 19.5981 23.8386 19.4158C24.2608 19.2334 24.5942 18.8923 24.767 18.466L23.9646 18.1174L23.1683 17.8192C22.4205 17.5137 21.599 17.4361 20.8072 17.5962C20.0154 17.7563 19.2886 18.147 18.7182 18.719C18.1482 19.2936 17.7566 20.0207 17.5906 20.8128C17.4245 21.605 17.4912 22.4282 17.7824 23.1833C17.4703 22.438 16.9446 21.8019 16.2715 21.355C15.5984 20.9082 14.808 20.6706 14.0001 20.6723C13.1904 20.6748 12.3988 20.9119 11.721 21.355C11.0433 21.798 10.5085 22.428 10.1813 23.1686C10.4866 22.4208 10.5641 21.5993 10.404 20.8076C10.244 20.0158 9.85344 19.289 9.28156 18.7185C8.70694 18.1486 7.97978 17.757 7.18769 17.591C6.39561 17.425 5.57241 17.4916 4.81731 17.7828C5.5625 17.4705 6.19857 16.9447 6.64534 16.2715C7.0921 15.5983 7.32956 14.8079 7.32777 14C7.32526 13.1903 7.08814 12.3986 6.64509 11.7209C6.20204 11.0432 5.57207 10.5084 4.8314 10.1812C5.57924 10.4867 6.40071 10.5643 7.19252 10.4042C7.98434 10.2441 8.71115 9.85348 9.28156 9.28144C9.85153 8.70687 10.2431 7.9797 10.4092 7.1876C10.5752 6.39549 10.5086 5.57227 10.2173 4.81719C10.5295 5.56238 11.0554 6.19845 11.7285 6.64521C12.4017 7.09198 13.1921 7.32944 14.0001 7.32765C14.8098 7.32514 15.6014 7.08801 16.2791 6.64497C16.9569 6.20192 17.4917 5.57194 17.8188 4.83127C17.5135 5.57915 17.436 6.40057 17.5961 7.19235C17.7562 7.98412 18.1467 8.71092 18.7186 9.28144C19.2934 9.85111 20.0205 10.2425 20.8126 10.4085C21.6046 10.5745 22.4277 10.5081 23.1829 10.2172C22.4413 10.5287 21.8078 11.0517 21.3614 11.7208C20.9149 12.3899 20.6753 13.1757 20.6724 13.98C20.6695 14.7844 20.9034 15.5719 21.345 16.2442C21.7865 16.9165 22.4162 17.4441 23.1556 17.761C23.158 17.7682 23.158 17.776 23.1556 17.7832L23.9643 18.1169L24.7684 18.4617L24.7731 18.4506C24.9517 18.0268 24.9561 17.5497 24.7852 17.1228C24.6144 16.6959 24.2821 16.3535 23.8605 16.17C23.4342 15.9896 23.0704 15.6877 22.8147 15.3019C22.559 14.9161 22.4226 14.4635 22.4226 14.0006C22.4226 13.5377 22.559 13.0851 22.8147 12.6993C23.0704 12.3135 23.4342 12.0116 23.8605 11.8313C24.2796 11.6425 24.6088 11.298 24.7785 10.8707C24.9482 10.4435 24.945 9.96696 24.7696 9.54203C24.5941 9.1171 24.2603 8.77708 23.8386 8.59393C23.417 8.41078 22.9406 8.39886 22.5103 8.5607C22.081 8.73556 21.6095 8.77984 21.1551 8.68799C20.7007 8.59613 20.2835 8.37223 19.9557 8.04432C19.628 7.71641 19.4043 7.29909 19.3126 6.84462C19.221 6.39015 19.2655 5.91874 19.4406 5.48945C19.6023 5.05918 19.5904 4.58286 19.4072 4.16126C19.224 3.73966 18.884 3.40585 18.4591 3.23048C18.0342 3.05511 17.5578 3.05192 17.1305 3.22159C16.7033 3.39126 16.3589 3.72048 16.1701 4.13959C15.9898 4.56589 15.6879 4.92962 15.302 5.18534C14.9162 5.44106 14.4636 5.57744 14.0007 5.57744C13.5379 5.57744 13.0853 5.44106 12.6994 5.18534C12.3136 4.92962 12.0117 4.56589 11.8314 4.13959C11.6426 3.72044 11.2981 3.3912 10.8708 3.22153C10.4436 3.05186 9.96708 3.05507 9.54215 3.23048C9.11722 3.4059 8.77721 3.73975 8.59406 4.16141C8.41091 4.58306 8.39899 5.05943 8.56082 5.48971C8.73569 5.91909 8.77997 6.39051 8.68811 6.84494C8.59625 7.29937 8.37235 7.71659 8.04444 8.04433C7.71654 8.37208 7.29921 8.59578 6.84474 8.68742C6.39027 8.77905 5.91886 8.73455 5.48957 8.55947L5.48931 8.55982Z" fill="#004686"/>
</svg>
