<svg width="20" height="21" viewBox="0 0 20 21" fill="none" xmlns="http://www.w3.org/2000/svg">
<path d="M2.5 7.41115V17.4112C2.5 17.6322 2.5878 17.8441 2.74408 18.0004C2.90036 18.1567 3.11232 18.2445 3.33333 18.2445H7.5C7.72101 18.2445 7.93297 18.1567 8.08925 18.0004C8.24554 17.8441 8.33333 17.6322 8.33333 17.4112V11.5778H11.6667V17.4112C11.6667 17.6322 11.7545 17.8441 11.9107 18.0004C12.067 18.1567 12.279 18.2445 12.5 18.2445H16.6667C16.8877 18.2445 17.0996 18.1567 17.2559 18.0004C17.4122 17.8441 17.5 17.6322 17.5 17.4112V7.41115C17.5 7.28178 17.4699 7.15419 17.412 7.03848C17.3542 6.92276 17.2702 6.82211 17.1667 6.74449L10.5 1.74449C10.3558 1.6363 10.1803 1.57782 10 1.57782C9.81969 1.57782 9.64425 1.6363 9.5 1.74449L2.83333 6.74449C2.72984 6.82211 2.64583 6.92276 2.58798 7.03848C2.53012 7.15419 2.5 7.28178 2.5 7.41115ZM4.16667 7.82782L10 3.45282L15.8333 7.82782V16.5778H13.3333V10.7445C13.3333 10.5235 13.2455 10.3115 13.0893 10.1552C12.933 9.99895 12.721 9.91115 12.5 9.91115H7.5C7.27899 9.91115 7.06702 9.99895 6.91074 10.1552C6.75446 10.3115 6.66667 10.5235 6.66667 10.7445V16.5778H4.16667V7.82782Z" fill="white"/>
</svg>
