<svg width="39" height="25" viewBox="0 0 39 25" fill="none" xmlns="http://www.w3.org/2000/svg">
<path d="M36.8334 3.8772H1.9386C0.84006 3.8772 0 3.03714 0 1.9386C0 0.84006 0.84006 0 1.9386 0H36.8334C37.932 0 38.772 0.84006 38.772 1.9386C38.772 3.03714 37.932 3.8772 36.8334 3.8772Z" fill="white"/>
<path d="M25.2018 14.2162H1.9386C0.84006 14.2162 0 13.3762 0 12.2776C0 11.1791 0.84006 10.3391 1.9386 10.3391H25.2018C26.3004 10.3391 27.1404 11.1791 27.1404 12.2776C27.1404 13.3762 26.3004 14.2162 25.2018 14.2162Z" fill="white"/>
<path d="M36.8334 24.5555H1.9386C0.84006 24.5555 0 23.7154 0 22.6169C0 21.5183 0.84006 20.6783 1.9386 20.6783H36.8334C37.932 20.6783 38.772 21.5183 38.772 22.6169C38.772 23.7154 37.932 24.5555 36.8334 24.5555Z" fill="white"/>
</svg>
