<svg width="123" height="112" viewBox="0 0 123 112" fill="none" xmlns="http://www.w3.org/2000/svg">
<path fill-rule="evenodd" clip-rule="evenodd" d="M99.6715 38.3232C99.6715 59.4886 82.4184 76.6465 61.1356 76.6465C39.8528 76.6465 22.5997 59.4886 22.5997 38.3232C22.5997 17.1579 39.8528 0 61.1356 0C82.4184 0 99.6715 17.1579 99.6715 38.3232ZM59.1093 72.5579V66.528L55.0566 61.5244V72.085C56.3828 72.3196 57.7353 72.4787 59.1093 72.5579ZM51.004 71.1121V56.5208L45.0316 49.1471V68.6546C46.9248 69.6507 48.9224 70.4767 51.004 71.1121ZM40.9789 66.1505V44.1436L35.8598 37.8232V61.6509C37.411 63.3124 39.1259 64.8207 40.9789 66.1505ZM31.8071 56.3686V32.8197L28.148 28.302C27.1756 31.472 26.6524 34.8369 26.6524 38.3232C26.6524 44.9442 28.5391 51.1269 31.8071 56.3686ZM29.8214 23.9432L44.8475 42.4949H45.0316V42.7223L60.8868 62.2977L92.2664 23.5552C91.6619 22.2973 90.9826 21.0818 90.2343 19.9143L60.8829 56.1035L31.8783 20.1643C31.1166 21.3753 30.4289 22.637 29.8214 23.9432ZM34.3242 16.7561L60.8907 49.6743L87.767 16.5368C85.8312 14.1993 83.5902 12.121 81.1047 10.3623L84.0422 12.7203L60.8932 41.2408L37.8252 13.0522C36.5689 14.1989 35.3983 15.4371 34.3242 16.7561ZM40.966 10.5052C46.6376 6.43115 53.6047 4.0303 61.1356 4.0303C68.4783 4.0303 75.2849 6.3126 80.8774 10.2028L60.8803 34.84L40.966 10.5052ZM93.9841 27.8593L90.393 32.293V56.4821C93.7047 51.2162 95.6188 44.992 95.6188 38.3232C95.6188 34.6741 95.0457 31.1581 93.9841 27.8593ZM67.0724 72.1098C65.7918 72.3308 64.4869 72.4816 63.162 72.5579V65.9135L67.0724 61.0855V72.1098ZM71.1251 71.1551C73.284 70.5064 75.3535 69.6528 77.3107 68.6171V48.4449L71.1251 56.0819V71.1551ZM81.3634 66.0994C83.161 64.8024 84.8278 63.3372 86.3404 61.7268V37.2966L81.3634 43.4413V66.0994Z" fill="#C79A4F"/>
<path d="M6.98439 84.4877H8.74424C8.92232 84.4877 9.01136 84.5762 9.01136 84.7533V94.2697C9.01136 94.4468 8.92232 94.5353 8.74424 94.5353H7.77004C7.59196 94.5353 7.50292 94.4468 7.50292 94.2697V86.3784H7.44007L5.39738 92.0977C5.33453 92.2643 5.2193 92.3477 5.05169 92.3477H4.04606C3.88893 92.3477 3.77894 92.2643 3.71609 92.0977L1.62627 86.3628H1.56341V94.2697C1.56341 94.3739 1.54246 94.4468 1.50056 94.4885C1.46914 94.5197 1.40105 94.5353 1.29629 94.5353H0.337803C0.159722 94.5353 0.0706822 94.4468 0.0706822 94.2697V84.7533C0.0706822 84.5762 0.159722 84.4877 0.337803 84.4877H2.09766C2.21288 84.4877 2.29669 84.545 2.34906 84.6596L4.50174 90.6913H4.5803L6.74869 84.6596C6.76964 84.545 6.84821 84.4877 6.98439 84.4877Z" fill="#C79A4F"/>
<path d="M18.4053 84.7533V94.2697C18.4053 94.4468 18.3162 94.5353 18.1381 94.5353H17.1482C16.9701 94.5353 16.8811 94.4468 16.8811 94.2697V84.7533C16.8811 84.5762 16.9701 84.4877 17.1482 84.4877H18.1381C18.3162 84.4877 18.4053 84.5762 18.4053 84.7533Z" fill="#C79A4F"/>
<path d="M31.6345 94.5353H26.5435C26.3654 94.5353 26.2764 94.4468 26.2764 94.2697V84.7533C26.2764 84.5762 26.3654 84.4877 26.5435 84.4877H27.5334C27.7115 84.4877 27.8005 84.5762 27.8005 84.7533V93.0196C27.8005 93.1238 27.8634 93.1759 27.9891 93.1759H31.6345C31.8126 93.1759 31.9016 93.2696 31.9016 93.4571V94.2697C31.9016 94.4468 31.8126 94.5353 31.6345 94.5353Z" fill="#C79A4F"/>
<path d="M44.2079 94.5353H39.1169C38.9388 94.5353 38.8498 94.4468 38.8498 94.2697V84.7533C38.8498 84.5762 38.9388 84.4877 39.1169 84.4877H40.1068C40.2849 84.4877 40.374 84.5762 40.374 84.7533V93.0196C40.374 93.1238 40.4368 93.1759 40.5625 93.1759H44.2079C44.386 93.1759 44.475 93.2696 44.475 93.4571V94.2697C44.475 94.4468 44.386 94.5353 44.2079 94.5353Z" fill="#C79A4F"/>
<path d="M56.7185 94.5353H51.6904C51.5123 94.5353 51.4232 94.4468 51.4232 94.2697V84.7533C51.4232 84.5762 51.5123 84.4877 51.6904 84.4877H56.7185C56.8861 84.4877 56.9699 84.5762 56.9699 84.7533V85.5503C56.9699 85.7274 56.8861 85.8159 56.7185 85.8159H53.136C53.0103 85.8159 52.9474 85.868 52.9474 85.9722V88.613C52.9474 88.7172 53.0103 88.7693 53.136 88.7693H56.1686C56.3571 88.7693 56.4514 88.8578 56.4514 89.0349V89.8318C56.4514 90.0089 56.3571 90.0975 56.1686 90.0975H53.136C53.0103 90.0975 52.9474 90.1496 52.9474 90.2538V93.0352C52.9474 93.1498 53.0103 93.2071 53.136 93.2071H56.7185C56.8861 93.2071 56.9699 93.2957 56.9699 93.4728V94.2697C56.9699 94.4468 56.8861 94.5353 56.7185 94.5353Z" fill="#C79A4F"/>
<path d="M65.7137 94.5353H64.7395C64.5614 94.5353 64.4724 94.4468 64.4724 94.2697V84.7533C64.4724 84.5762 64.5614 84.4877 64.7395 84.4877H65.6194C65.787 84.4877 65.9023 84.545 65.9651 84.6596L69.7676 91.457H69.8305V84.7533C69.8305 84.5762 69.9195 84.4877 70.0976 84.4877H71.0718C71.2499 84.4877 71.3389 84.5762 71.3389 84.7533V94.2697C71.3389 94.4468 71.2499 94.5353 71.0718 94.5353H70.2233C70.0557 94.5353 69.9195 94.452 69.8148 94.2853L66.0437 87.566H65.9808V94.2697C65.9808 94.4468 65.8918 94.5353 65.7137 94.5353Z" fill="#C79A4F"/>
<path d="M80.374 94.5353H79.3998C79.2217 94.5353 79.1327 94.4468 79.1327 94.2697V84.7533C79.1327 84.5762 79.2217 84.4877 79.3998 84.4877H80.2797C80.4473 84.4877 80.5626 84.545 80.6254 84.6596L84.428 91.457H84.4908V84.7533C84.4908 84.5762 84.5799 84.4877 84.7579 84.4877H85.7321C85.9102 84.4877 85.9993 84.5762 85.9993 84.7533V94.2697C85.9993 94.4468 85.9102 94.5353 85.7321 94.5353H84.8836C84.716 94.5353 84.5799 94.452 84.4751 94.2853L80.704 87.566H80.6411V94.2697C80.6411 94.4468 80.5521 94.5353 80.374 94.5353Z" fill="#C79A4F"/>
<path d="M95.3957 84.7533V94.2697C95.3957 94.4468 95.3067 94.5353 95.1286 94.5353H94.1387C93.9606 94.5353 93.8716 94.4468 93.8716 94.2697V84.7533C93.8716 84.5762 93.9606 84.4877 94.1387 84.4877H95.1286C95.3067 84.4877 95.3957 84.5762 95.3957 84.7533Z" fill="#C79A4F"/>
<path d="M103.817 94.5353H102.685C102.539 94.5353 102.486 94.4468 102.528 94.2697L105.262 84.7533C105.315 84.5762 105.44 84.4877 105.639 84.4877H107.211C107.42 84.4877 107.546 84.5762 107.588 84.7533L110.322 94.2697C110.364 94.4468 110.306 94.5353 110.149 94.5353H109.034C108.939 94.5353 108.871 94.5197 108.829 94.4885C108.798 94.4468 108.772 94.3739 108.751 94.2697L108.154 92.2383H104.697L104.1 94.2697C104.058 94.4468 103.963 94.5353 103.817 94.5353ZM106.394 85.9878L105.011 90.9882H107.855L106.457 85.9878H106.394Z" fill="#C79A4F"/>
<path d="M122.733 94.5353H117.642C117.464 94.5353 117.375 94.4468 117.375 94.2697V84.7533C117.375 84.5762 117.464 84.4877 117.642 84.4877H118.632C118.81 84.4877 118.899 84.5762 118.899 84.7533V93.0196C118.899 93.1238 118.962 93.1759 119.087 93.1759H122.733C122.911 93.1759 123 93.2696 123 93.4571V94.2697C123 94.4468 122.911 94.5353 122.733 94.5353Z" fill="#C79A4F"/>
<path d="M0.927136 112H0.197016C0.0656721 112 0 111.935 0 111.804V104.785C0 104.655 0.0656721 104.589 0.197016 104.589H2.90889C3.4729 104.589 3.91329 104.751 4.23006 105.073C4.55456 105.388 4.71681 105.826 4.71681 106.387V107.355C4.71681 108.239 4.34981 108.796 3.61583 109.026V109.073L4.90223 111.769C4.98722 111.923 4.937 112 4.75157 112H4.03304C3.84762 112 3.72786 111.935 3.67378 111.804L2.43373 109.153H1.26322C1.17051 109.153 1.12415 109.192 1.12415 109.269V111.804C1.12415 111.935 1.05848 112 0.927136 112ZM1.25163 108.231H2.72346C3.2952 108.231 3.58106 107.951 3.58106 107.39V106.422C3.58106 105.853 3.2952 105.569 2.72346 105.569H1.25163C1.16665 105.569 1.12415 105.607 1.12415 105.684V108.116C1.12415 108.193 1.16665 108.231 1.25163 108.231Z" fill="#C79A4F"/>
<path d="M12.0411 112H8.33255C8.2012 112 8.13553 111.935 8.13553 111.804V104.785C8.13553 104.655 8.2012 104.589 8.33255 104.589H12.0411C12.1647 104.589 12.2265 104.655 12.2265 104.785V105.373C12.2265 105.504 12.1647 105.569 12.0411 105.569H9.39875C9.30604 105.569 9.25968 105.607 9.25968 105.684V107.632C9.25968 107.709 9.30604 107.747 9.39875 107.747H11.6355C11.7745 107.747 11.8441 107.812 11.8441 107.943V108.531C11.8441 108.662 11.7745 108.727 11.6355 108.727H9.39875C9.30604 108.727 9.25968 108.765 9.25968 108.842V110.894C9.25968 110.978 9.30604 111.02 9.39875 111.02H12.0411C12.1647 111.02 12.2265 111.086 12.2265 111.216V111.804C12.2265 111.935 12.1647 112 12.0411 112Z" fill="#C79A4F"/>
<path d="M15.9637 112H15.1293C15.0211 112 14.9825 111.935 15.0134 111.804L17.0299 104.785C17.0685 104.655 17.1612 104.589 17.308 104.589H18.4669C18.6215 104.589 18.7142 104.655 18.7451 104.785L20.7616 111.804C20.7925 111.935 20.75 112 20.6341 112H19.8113C19.7418 112 19.6915 111.988 19.6606 111.965C19.6375 111.935 19.6181 111.881 19.6027 111.804L19.1623 110.306H16.6127L16.1723 111.804C16.1414 111.935 16.0718 112 15.9637 112ZM17.8643 105.696L16.8445 109.384H18.9421L17.9107 105.696H17.8643Z" fill="#C79A4F"/>
<path d="M27.7134 112H23.9585C23.8272 112 23.7615 111.935 23.7615 111.804V104.785C23.7615 104.655 23.8272 104.589 23.9585 104.589H24.6886C24.82 104.589 24.8856 104.655 24.8856 104.785V110.882C24.8856 110.959 24.932 110.997 25.0247 110.997H27.7134C27.8448 110.997 27.9104 111.066 27.9104 111.205V111.804C27.9104 111.935 27.8448 112 27.7134 112Z" fill="#C79A4F"/>
<path d="M39.3545 112H35.6459C35.5146 112 35.4489 111.935 35.4489 111.804V104.785C35.4489 104.655 35.5146 104.589 35.6459 104.589H39.3545C39.4781 104.589 39.5399 104.655 39.5399 104.785V105.373C39.5399 105.504 39.4781 105.569 39.3545 105.569H36.7122C36.6194 105.569 36.5731 105.607 36.5731 105.684V107.632C36.5731 107.709 36.6194 107.747 36.7122 107.747H38.9489C39.0879 107.747 39.1575 107.812 39.1575 107.943V108.531C39.1575 108.662 39.0879 108.727 38.9489 108.727H36.7122C36.6194 108.727 36.5731 108.765 36.5731 108.842V110.894C36.5731 110.978 36.6194 111.02 36.7122 111.02H39.3545C39.4781 111.02 39.5399 111.086 39.5399 111.216V111.804C39.5399 111.935 39.4781 112 39.3545 112Z" fill="#C79A4F"/>
<path d="M42.7324 110.202V109.902C42.7324 109.772 42.7981 109.706 42.9294 109.706H43.6711C43.8025 109.706 43.8681 109.772 43.8681 109.902V110.11C43.8681 110.433 43.9377 110.667 44.0767 110.813C44.2235 110.951 44.463 111.02 44.7953 111.02H45.5949C45.9271 111.02 46.1666 110.947 46.3134 110.801C46.4602 110.648 46.5336 110.402 46.5336 110.064V109.799C46.5336 109.553 46.4371 109.361 46.2439 109.222C46.0585 109.076 45.8267 108.984 45.5486 108.946C45.2704 108.9 44.9652 108.838 44.633 108.761C44.3008 108.685 43.9956 108.596 43.7175 108.496C43.4393 108.396 43.2037 108.208 43.0105 107.932C42.8251 107.655 42.7324 107.302 42.7324 106.871V106.387C42.7324 105.826 42.8908 105.388 43.2075 105.073C43.532 104.751 43.9763 104.589 44.5403 104.589H45.7688C46.3405 104.589 46.7847 104.751 47.1015 105.073C47.426 105.388 47.5883 105.826 47.5883 106.387V106.641C47.5883 106.771 47.5226 106.837 47.3912 106.837H46.6495C46.5182 106.837 46.4525 106.771 46.4525 106.641V106.491C46.4525 106.161 46.3791 105.926 46.2323 105.788C46.0933 105.642 45.8576 105.569 45.5254 105.569H44.7953C44.463 105.569 44.2235 105.646 44.0767 105.799C43.9377 105.945 43.8681 106.199 43.8681 106.56V106.917C43.8681 107.263 44.1192 107.497 44.6214 107.62C44.8455 107.674 45.0889 107.72 45.3515 107.759C45.622 107.797 45.8924 107.855 46.1628 107.932C46.4332 108.008 46.6804 108.112 46.9045 108.243C47.1286 108.366 47.3101 108.558 47.4492 108.819C47.5883 109.073 47.6578 109.384 47.6578 109.753V110.202C47.6578 110.763 47.4955 111.205 47.171 111.527C46.8543 111.842 46.4139 112 45.8499 112H44.5519C43.9879 112 43.5436 111.842 43.2191 111.527C42.8946 111.205 42.7324 110.763 42.7324 110.202Z" fill="#C79A4F"/>
<path d="M53.1146 112H52.3845C52.2454 112 52.1759 111.935 52.1759 111.804V105.684C52.1759 105.607 52.1372 105.569 52.06 105.569H50.5997C50.4607 105.569 50.3911 105.504 50.3911 105.373V104.785C50.3911 104.655 50.4607 104.589 50.5997 104.589H54.8993C55.0384 104.589 55.1079 104.655 55.1079 104.785V105.373C55.1079 105.504 55.0384 105.569 54.8993 105.569H53.4391C53.3541 105.569 53.3116 105.607 53.3116 105.684V111.804C53.3116 111.935 53.2459 112 53.1146 112Z" fill="#C79A4F"/>
<path d="M58.3598 112H57.5254C57.4172 112 57.3786 111.935 57.4095 111.804L59.426 104.785C59.4646 104.655 59.5573 104.589 59.7041 104.589H60.8631C61.0176 104.589 61.1103 104.655 61.1412 104.785L63.1577 111.804C63.1886 111.935 63.1461 112 63.0302 112H62.2074C62.1379 112 62.0877 111.988 62.0567 111.965C62.0336 111.935 62.0143 111.881 61.9988 111.804L61.5584 110.306H59.0088L58.5684 111.804C58.5375 111.935 58.468 112 58.3598 112ZM60.2604 105.696L59.2406 109.384H61.3382L60.3068 105.696H60.2604Z" fill="#C79A4F"/>
<path d="M68.1973 112H67.4672C67.3281 112 67.2586 111.935 67.2586 111.804V105.684C67.2586 105.607 67.2199 105.569 67.1427 105.569H65.6824C65.5434 105.569 65.4738 105.504 65.4738 105.373V104.785C65.4738 104.655 65.5434 104.589 65.6824 104.589H69.982C70.1211 104.589 70.1906 104.655 70.1906 104.785V105.373C70.1906 105.504 70.1211 105.569 69.982 105.569H68.5218C68.4368 105.569 68.3943 105.607 68.3943 105.684V111.804C68.3943 111.935 68.3286 112 68.1973 112Z" fill="#C79A4F"/>
<path d="M76.9424 112H73.2339C73.1026 112 73.0369 111.935 73.0369 111.804V104.785C73.0369 104.655 73.1026 104.589 73.2339 104.589H76.9424C77.0661 104.589 77.1279 104.655 77.1279 104.785V105.373C77.1279 105.504 77.0661 105.569 76.9424 105.569H74.3001C74.2074 105.569 74.161 105.607 74.161 105.684V107.632C74.161 107.709 74.2074 107.747 74.3001 107.747H76.5368C76.6759 107.747 76.7454 107.812 76.7454 107.943V108.531C76.7454 108.662 76.6759 108.727 76.5368 108.727H74.3001C74.2074 108.727 74.161 108.765 74.161 108.842V110.894C74.161 110.978 74.2074 111.02 74.3001 111.02H76.9424C77.0661 111.02 77.1279 111.086 77.1279 111.216V111.804C77.1279 111.935 77.0661 112 76.9424 112Z" fill="#C79A4F"/>
<path d="M87.9956 112H86.7556C86.1839 112 85.7396 111.842 85.4228 111.527C85.1138 111.212 84.9593 110.774 84.9593 110.214V106.376C84.9593 105.807 85.1138 105.369 85.4228 105.062C85.7396 104.747 86.1839 104.589 86.7556 104.589H87.9956C88.5674 104.589 89.0078 104.747 89.3168 105.062C89.6336 105.369 89.792 105.807 89.792 106.376V106.791C89.792 106.929 89.7263 106.998 89.5949 106.998H88.8648C88.7335 106.998 88.6678 106.929 88.6678 106.791V106.422C88.6678 105.853 88.3897 105.569 87.8334 105.569H86.9178C86.3616 105.569 86.0834 105.853 86.0834 106.422V110.167C86.0834 110.736 86.3616 111.02 86.9178 111.02H87.8334C88.3897 111.02 88.6678 110.736 88.6678 110.167V109.13C88.6678 109.053 88.6253 109.015 88.5403 109.015H87.6016C87.4703 109.015 87.4046 108.95 87.4046 108.819V108.231C87.4046 108.101 87.4703 108.035 87.6016 108.035H89.5486C89.7108 108.035 89.792 108.116 89.792 108.277V110.214C89.792 110.774 89.6336 111.212 89.3168 111.527C89 111.842 88.5597 112 87.9956 112Z" fill="#C79A4F"/>
<path d="M94.1492 112H93.419C93.2877 112 93.222 111.935 93.222 111.804V104.785C93.222 104.655 93.2877 104.589 93.419 104.589H96.1309C96.6949 104.589 97.1353 104.751 97.4521 105.073C97.7766 105.388 97.9388 105.826 97.9388 106.387V107.355C97.9388 108.239 97.5718 108.796 96.8378 109.026V109.073L98.1242 111.769C98.2092 111.923 98.159 112 97.9736 112H97.2551C97.0696 112 96.9499 111.935 96.8958 111.804L95.6557 109.153H94.4852C94.3925 109.153 94.3462 109.192 94.3462 109.269V111.804C94.3462 111.935 94.2805 112 94.1492 112ZM94.4737 108.231H95.9455C96.5172 108.231 96.8031 107.951 96.8031 107.39V106.422C96.8031 105.853 96.5172 105.569 95.9455 105.569H94.4737C94.3887 105.569 94.3462 105.607 94.3462 105.684V108.116C94.3462 108.193 94.3887 108.231 94.4737 108.231Z" fill="#C79A4F"/>
<path d="M103.2 111.02H104.208C104.772 111.02 105.054 110.736 105.054 110.167V106.422C105.054 105.853 104.772 105.569 104.208 105.569H103.2C102.644 105.569 102.366 105.853 102.366 106.422V110.167C102.366 110.736 102.644 111.02 103.2 111.02ZM104.382 112H103.038C102.466 112 102.022 111.842 101.705 111.527C101.396 111.212 101.242 110.774 101.242 110.214V106.376C101.242 105.807 101.396 105.369 101.705 105.062C102.022 104.747 102.466 104.589 103.038 104.589H104.382C104.954 104.589 105.398 104.747 105.715 105.062C106.032 105.369 106.19 105.807 106.19 106.376V110.214C106.19 110.774 106.032 111.212 105.715 111.527C105.398 111.842 104.954 112 104.382 112Z" fill="#C79A4F"/>
<path d="M113.5 104.589H114.23C114.369 104.589 114.439 104.651 114.439 104.774V110.214C114.439 110.774 114.277 111.212 113.952 111.527C113.635 111.842 113.195 112 112.631 112H111.345C110.781 112 110.34 111.842 110.023 111.527C109.707 111.212 109.548 110.774 109.548 110.214V104.785C109.548 104.655 109.614 104.589 109.745 104.589H110.475C110.607 104.589 110.672 104.655 110.672 104.785V110.167C110.672 110.736 110.951 111.02 111.507 111.02H112.457C113.021 111.02 113.303 110.736 113.303 110.167V104.785C113.303 104.655 113.369 104.589 113.5 104.589Z" fill="#C79A4F"/>
<path d="M118.839 112H118.109C117.977 112 117.912 111.935 117.912 111.804V104.785C117.912 104.655 117.977 104.589 118.109 104.589H120.867C121.431 104.589 121.871 104.747 122.188 105.062C122.505 105.369 122.663 105.807 122.663 106.376V107.574C122.663 108.135 122.505 108.573 122.188 108.888C121.871 109.203 121.431 109.361 120.867 109.361H119.175C119.082 109.361 119.036 109.399 119.036 109.476V111.804C119.036 111.935 118.97 112 118.839 112ZM119.163 108.37H120.705C121.253 108.37 121.527 108.085 121.527 107.517V106.422C121.527 105.853 121.253 105.569 120.705 105.569H119.163C119.078 105.569 119.036 105.607 119.036 105.684V108.254C119.036 108.331 119.078 108.37 119.163 108.37Z" fill="#C79A4F"/>
</svg>
