<svg width="21" height="23" viewBox="0 0 21 23" fill="none" xmlns="http://www.w3.org/2000/svg">
<g id="Layer_1">
<path id="Vector" d="M0 14.4096V23H15.3329L16.4279 22.148C18.8332 20.2773 20.2127 17.4567 20.2127 14.4096V14.0816L15.7452 12.0952C14.9417 9.96028 13.1029 10.4256 10.9194 9.97842C12.2575 9.06834 13.1383 7.5342 13.1383 5.79793C13.1383 3.01161 10.8714 0.744751 8.08508 0.744751C5.29876 0.744751 3.03191 3.01161 3.03191 5.79793C3.03191 7.53167 3.91065 9.0643 5.2452 9.97438C2.25574 10.5888 0 11.2408 0 14.4096ZM19.196 14.7355C19.1015 17.343 17.8786 19.7397 15.8068 21.3511L15.1595 21.8544L14.5122 21.3506C12.4404 19.7397 11.217 17.3425 11.1231 14.735L15.1605 12.9411L19.196 14.7355ZM4.04254 5.79793C4.04254 3.56897 5.85613 1.75539 8.08508 1.75539C10.314 1.75539 12.1276 3.56897 12.1276 5.79793C12.1276 8.02688 10.314 9.84047 8.08508 9.84047C5.85613 9.84047 4.04254 8.02688 4.04254 5.79793ZM6.56913 10.8511H9.60104C11.78 10.8511 13.731 10.123 14.6345 12.0685L10.1064 14.0816V14.4096C10.1064 17.3733 11.4146 20.1197 13.6987 21.9894H1.01064V14.4096C1.01064 11.3448 3.50438 10.8511 6.56913 10.8511Z" fill="white"/>
<path id="Vector_2" d="M15.6648 14.9149H14.6542V16.4309H13.1382V17.4415H14.6542V18.9575H15.6648V17.4415H17.1808V16.4309H15.6648V14.9149Z" fill="white"/>
</g>
</svg>
