<svg width="39" height="25" viewBox="0 0 39 25" fill="none" xmlns="http://www.w3.org/2000/svg">
<path d="M36.8334 3.8772H1.9386C0.84006 3.8772 0 3.03714 0 1.9386C0 0.84006 0.84006 0 1.9386 0H36.8334C37.932 0 38.772 0.84006 38.772 1.9386C38.772 3.03714 37.932 3.8772 36.8334 3.8772Z" fill="black"/>
<path d="M25.2017 14.2163H1.93848C0.839938 14.2163 -0.00012207 13.3763 -0.00012207 12.2777C-0.00012207 11.1792 0.839938 10.3391 1.93848 10.3391H25.2017C26.3002 10.3391 27.1403 11.1792 27.1403 12.2777C27.1403 13.3763 26.3002 14.2163 25.2017 14.2163Z" fill="black"/>
<path d="M36.8333 24.5556H1.93848C0.839938 24.5556 -0.00012207 23.7155 -0.00012207 22.6169C-0.00012207 21.5184 0.839938 20.6783 1.93848 20.6783H36.8333C37.9318 20.6783 38.7719 21.5184 38.7719 22.6169C38.7719 23.7155 37.9318 24.5556 36.8333 24.5556Z" fill="black"/>
</svg>
